M48
; DRILL file {KiCad 9.0.2} date 2025-07-27T13:21:00+0530
; FORMAT={-:-/ absolute / metric / decimal}
; #@! TF.CreationDate,2025-07-27T13:21:00+05:30
; #@! TF.GenerationSoftware,Kicad,Pcbnew,9.0.2
; #@! TF.FileFunction,Plated,1,2,PTH
FMAT,2
METRIC
; #@! TA.AperFunction,Plated,PTH,ViaDrill
T1C0.300
; #@! TA.AperFunction,Plated,PTH,ComponentDrill
T2C0.889
; #@! TA.AperFunction,Plated,PTH,ComponentDrill
T3C1.000
; #@! TA.AperFunction,Plated,PTH,ComponentDrill
T4C1.500
%
G90
G05
T1
X76.2Y-73.819
X78.581Y-76.2
X85.301Y-93.293
X92.869Y-102.394
T2
X70.4Y-72.069
X70.4Y-74.608
X70.4Y-77.148
X70.4Y-79.688
X70.4Y-82.228
X70.4Y-84.769
X70.4Y-87.308
X85.64Y-72.069
X85.64Y-74.608
X85.64Y-77.148
X85.64Y-79.688
X85.64Y-82.228
X85.64Y-84.769
X85.64Y-87.308
T3
X129.534Y-74.886
X129.534Y-77.426
X129.534Y-79.966
X129.534Y-82.506
T4
X75.41Y-104.06
X75.51Y-125.56
X81.76Y-101.52
X81.86Y-123.02
X96.31Y-94.06
X96.41Y-114.66
X96.41Y-135.46
X102.66Y-91.52
X102.76Y-112.12
X102.76Y-132.92
X117.01Y-124.86
X117.47Y-103.26
X123.36Y-122.32
X123.82Y-100.72
M30
