M48
; DRILL file {KiCad 9.0.2} date 2025-07-27T13:21:00+0530
; FORMAT={-:-/ absolute / metric / decimal}
; #@! TF.CreationDate,2025-07-27T13:21:00+05:30
; #@! TF.GenerationSoftware,Kicad,Pcbnew,9.0.2
; #@! TF.FileFunction,NonPlated,1,2,NPTH
FMAT,2
METRIC
; #@! TA.AperFunction,NonPlated,NPTH,ComponentDrill
T1C1.700
; #@! TA.AperFunction,NonPlated,NPTH,ComponentDrill
T2C4.000
%
G90
G05
T1
X74.14Y-106.6
X74.24Y-128.1
X84.3Y-106.6
X84.4Y-128.1
X95.04Y-96.6
X95.14Y-117.2
X95.14Y-138.0
X105.2Y-96.6
X105.3Y-117.2
X105.3Y-138.0
X115.74Y-127.4
X116.2Y-105.8
X125.9Y-127.4
X126.36Y-105.8
T2
X79.22Y-106.6
X79.32Y-128.1
X100.12Y-96.6
X100.22Y-117.2
X100.22Y-138.0
X120.82Y-127.4
X121.28Y-105.8
M30
