%TF.GenerationSoftware,KiCad,Pcbnew,9.0.2*%
%TF.CreationDate,2025-07-27T13:16:15+05:30*%
%TF.ProjectId,honey-pad,686f6e65-792d-4706-9164-2e6b69636164,rev?*%
%TF.SameCoordinates,Original*%
%TF.FileFunction,Soldermask,Bot*%
%TF.FilePolarity,Negative*%
%FSLAX46Y46*%
G04 Gerber Fmt 4.6, Leading zero omitted, Abs format (unit mm)*
G04 Created by KiCad (PCBNEW 9.0.2) date 2025-07-27 13:16:15*
%MOMM*%
%LPD*%
G01*
G04 APERTURE LIST*
%ADD10R,1.700000X1.700000*%
%ADD11O,1.700000X1.700000*%
%ADD12C,1.524000*%
%ADD13C,1.700000*%
%ADD14C,4.000000*%
%ADD15C,2.200000*%
G04 APERTURE END LIST*
D10*
%TO.C,J1*%
X129533750Y-74886250D03*
D11*
X129533750Y-77426250D03*
X129533750Y-79966250D03*
X129533750Y-82506250D03*
%TD*%
D12*
%TO.C,U1*%
X70400000Y-72068500D03*
X70400000Y-74608500D03*
X70400000Y-77148500D03*
X70400000Y-79688500D03*
X70400000Y-82228500D03*
X70400000Y-84768500D03*
X70400000Y-87308500D03*
X85640000Y-87308500D03*
X85640000Y-84768500D03*
X85640000Y-82228500D03*
X85640000Y-79688500D03*
X85640000Y-77148500D03*
X85640000Y-74608500D03*
X85640000Y-72068500D03*
%TD*%
D13*
%TO.C,SW7*%
X95140000Y-117200000D03*
D14*
X100220000Y-117200000D03*
D13*
X105300000Y-117200000D03*
D15*
X102760000Y-112120000D03*
X96410000Y-114660000D03*
%TD*%
D13*
%TO.C,SW1*%
X95040000Y-96600000D03*
D14*
X100120000Y-96600000D03*
D13*
X105200000Y-96600000D03*
D15*
X102660000Y-91520000D03*
X96310000Y-94060000D03*
%TD*%
D13*
%TO.C,SW6*%
X74140000Y-106600000D03*
D14*
X79220000Y-106600000D03*
D13*
X84300000Y-106600000D03*
D15*
X81760000Y-101520000D03*
X75410000Y-104060000D03*
%TD*%
D13*
%TO.C,SW4*%
X115740000Y-127400000D03*
D14*
X120820000Y-127400000D03*
D13*
X125900000Y-127400000D03*
D15*
X123360000Y-122320000D03*
X117010000Y-124860000D03*
%TD*%
D13*
%TO.C,SW2*%
X74240000Y-128100000D03*
D14*
X79320000Y-128100000D03*
D13*
X84400000Y-128100000D03*
D15*
X81860000Y-123020000D03*
X75510000Y-125560000D03*
%TD*%
D13*
%TO.C,SW3*%
X95140000Y-138000000D03*
D14*
X100220000Y-138000000D03*
D13*
X105300000Y-138000000D03*
D15*
X102760000Y-132920000D03*
X96410000Y-135460000D03*
%TD*%
D13*
%TO.C,SW5*%
X116200000Y-105800000D03*
D14*
X121280000Y-105800000D03*
D13*
X126360000Y-105800000D03*
D15*
X123820000Y-100720000D03*
X117470000Y-103260000D03*
%TD*%
M02*
