%TF.GenerationSoftware,KiCad,Pcbnew,9.0.2*%
%TF.CreationDate,2025-07-27T13:16:14+05:30*%
%TF.ProjectId,honey-pad,686f6e65-792d-4706-9164-2e6b69636164,rev?*%
%TF.SameCoordinates,Original*%
%TF.FileFunction,Copper,L1,Top*%
%TF.FilePolarity,Positive*%
%FSLAX46Y46*%
G04 Gerber Fmt 4.6, Leading zero omitted, Abs format (unit mm)*
G04 Created by KiCad (PCBNEW 9.0.2) date 2025-07-27 13:16:14*
%MOMM*%
%LPD*%
G01*
G04 APERTURE LIST*
G04 Aperture macros list*
%AMRoundRect*
0 Rectangle with rounded corners*
0 $1 Rounding radius*
0 $2 $3 $4 $5 $6 $7 $8 $9 X,Y pos of 4 corners*
0 Add a 4 corners polygon primitive as box body*
4,1,4,$2,$3,$4,$5,$6,$7,$8,$9,$2,$3,0*
0 Add four circle primitives for the rounded corners*
1,1,$1+$1,$2,$3*
1,1,$1+$1,$4,$5*
1,1,$1+$1,$6,$7*
1,1,$1+$1,$8,$9*
0 Add four rect primitives between the rounded corners*
20,1,$1+$1,$2,$3,$4,$5,0*
20,1,$1+$1,$4,$5,$6,$7,0*
20,1,$1+$1,$6,$7,$8,$9,0*
20,1,$1+$1,$8,$9,$2,$3,0*%
G04 Aperture macros list end*
%TA.AperFunction,ComponentPad*%
%ADD10R,1.700000X1.700000*%
%TD*%
%TA.AperFunction,ComponentPad*%
%ADD11O,1.700000X1.700000*%
%TD*%
%TA.AperFunction,SMDPad,CuDef*%
%ADD12RoundRect,0.152400X1.063600X0.609600X-1.063600X0.609600X-1.063600X-0.609600X1.063600X-0.609600X0*%
%TD*%
%TA.AperFunction,ComponentPad*%
%ADD13C,1.524000*%
%TD*%
%TA.AperFunction,SMDPad,CuDef*%
%ADD14RoundRect,0.152400X-1.063600X-0.609600X1.063600X-0.609600X1.063600X0.609600X-1.063600X0.609600X0*%
%TD*%
%TA.AperFunction,ComponentPad*%
%ADD15C,2.200000*%
%TD*%
%TA.AperFunction,ViaPad*%
%ADD16C,0.600000*%
%TD*%
%TA.AperFunction,Conductor*%
%ADD17C,0.200000*%
%TD*%
G04 APERTURE END LIST*
D10*
%TO.P,J1,1,Pin_1*%
%TO.N,GND*%
X129533750Y-74886250D03*
D11*
%TO.P,J1,2,Pin_2*%
%TO.N,VCC*%
X129533750Y-77426250D03*
%TO.P,J1,3,Pin_3*%
%TO.N,scl*%
X129533750Y-79966250D03*
%TO.P,J1,4,Pin_4*%
%TO.N,sda*%
X129533750Y-82506250D03*
%TD*%
D12*
%TO.P,U1,1,GPIO26/ADC0/A0*%
%TO.N,sw1*%
X69565000Y-72068500D03*
D13*
X70400000Y-72068500D03*
D12*
%TO.P,U1,2,GPIO27/ADC1/A1*%
%TO.N,sw2*%
X69565000Y-74608500D03*
D13*
X70400000Y-74608500D03*
D12*
%TO.P,U1,3,GPIO28/ADC2/A2*%
%TO.N,sw3*%
X69565000Y-77148500D03*
D13*
X70400000Y-77148500D03*
D12*
%TO.P,U1,4,GPIO29/ADC3/A3*%
%TO.N,sw4*%
X69565000Y-79688500D03*
D13*
X70400000Y-79688500D03*
D12*
%TO.P,U1,5,GPIO6/SDA*%
%TO.N,sda*%
X69565000Y-82228500D03*
D13*
X70400000Y-82228500D03*
D12*
%TO.P,U1,6,GPIO7/SCL*%
%TO.N,scl*%
X69565000Y-84768500D03*
D13*
X70400000Y-84768500D03*
D12*
%TO.P,U1,7,GPIO0/TX*%
%TO.N,sw5*%
X69565000Y-87308500D03*
D13*
X70400000Y-87308500D03*
%TO.P,U1,8,GPIO1/RX*%
%TO.N,sw6*%
X85640000Y-87308500D03*
D14*
X86475000Y-87308500D03*
D13*
%TO.P,U1,9,GPIO2/SCK*%
%TO.N,sw7*%
X85640000Y-84768500D03*
D14*
X86475000Y-84768500D03*
D13*
%TO.P,U1,10,GPIO4/MISO*%
%TO.N,unconnected-(U1-GPIO4{slash}MISO-Pad10)*%
X85640000Y-82228500D03*
D14*
X86475000Y-82228500D03*
D13*
%TO.P,U1,11,GPIO3/MOSI*%
%TO.N,unconnected-(U1-GPIO3{slash}MOSI-Pad11)*%
X85640000Y-79688500D03*
D14*
X86475000Y-79688500D03*
D13*
%TO.P,U1,12,3V3*%
%TO.N,VCC*%
X85640000Y-77148500D03*
D14*
X86475000Y-77148500D03*
D13*
%TO.P,U1,13,GND*%
%TO.N,GND*%
X85640000Y-74608500D03*
D14*
X86475000Y-74608500D03*
D13*
%TO.P,U1,14,VBUS*%
%TO.N,unconnected-(U1-VBUS-Pad14)*%
X85640000Y-72068500D03*
D14*
X86475000Y-72068500D03*
%TD*%
D15*
%TO.P,SW7,1,1*%
%TO.N,GND*%
X102760000Y-112120000D03*
%TO.P,SW7,2,2*%
%TO.N,sw7*%
X96410000Y-114660000D03*
%TD*%
%TO.P,SW1,1,1*%
%TO.N,GND*%
X102660000Y-91520000D03*
%TO.P,SW1,2,2*%
%TO.N,sw1*%
X96310000Y-94060000D03*
%TD*%
%TO.P,SW6,1,1*%
%TO.N,GND*%
X81760000Y-101520000D03*
%TO.P,SW6,2,2*%
%TO.N,sw6*%
X75410000Y-104060000D03*
%TD*%
%TO.P,SW4,1,1*%
%TO.N,GND*%
X123360000Y-122320000D03*
%TO.P,SW4,2,2*%
%TO.N,sw4*%
X117010000Y-124860000D03*
%TD*%
%TO.P,SW2,1,1*%
%TO.N,GND*%
X81860000Y-123020000D03*
%TO.P,SW2,2,2*%
%TO.N,sw2*%
X75510000Y-125560000D03*
%TD*%
%TO.P,SW3,1,1*%
%TO.N,GND*%
X102760000Y-132920000D03*
%TO.P,SW3,2,2*%
%TO.N,sw3*%
X96410000Y-135460000D03*
%TD*%
%TO.P,SW5,1,1*%
%TO.N,GND*%
X123820000Y-100720000D03*
%TO.P,SW5,2,2*%
%TO.N,sw5*%
X117470000Y-103260000D03*
%TD*%
D16*
%TO.N,sda*%
X76200000Y-73818750D03*
%TO.N,scl*%
X78581250Y-76200000D03*
%TO.N,sw6*%
X85300735Y-93293015D03*
%TO.N,sw7*%
X92868750Y-102393750D03*
%TD*%
D17*
%TO.N,sda*%
X76200000Y-76428500D02*
X70400000Y-82228500D01*
X76200000Y-73818750D02*
X76200000Y-76428500D01*
%TO.N,scl*%
X78581250Y-76587250D02*
X70400000Y-84768500D01*
X78581250Y-76200000D02*
X78581250Y-76587250D01*
%TO.N,GND*%
X123820000Y-80600000D02*
X123820000Y-100720000D01*
X129533750Y-74886250D02*
X123820000Y-80600000D01*
X91760000Y-132920000D02*
X102760000Y-132920000D01*
X123820000Y-100720000D02*
X111860000Y-100720000D01*
X81860000Y-123020000D02*
X91760000Y-132920000D01*
X102760000Y-112120000D02*
X113160000Y-112120000D01*
X113160000Y-112120000D02*
X123360000Y-122320000D01*
X81760000Y-122920000D02*
X81860000Y-123020000D01*
X81760000Y-101520000D02*
X81760000Y-122920000D01*
X94085000Y-81195000D02*
X93777500Y-81195000D01*
X102760000Y-132920000D02*
X102760000Y-112120000D01*
X123360000Y-122320000D02*
X123820000Y-121860000D01*
X94085000Y-82945000D02*
X94085000Y-81195000D01*
X111860000Y-100720000D02*
X102660000Y-91520000D01*
X123820000Y-121860000D02*
X123820000Y-100720000D01*
X102660000Y-91520000D02*
X94085000Y-82945000D01*
X81760000Y-77942500D02*
X85725000Y-73977500D01*
X93777500Y-81195000D02*
X86560000Y-73977500D01*
X81760000Y-101520000D02*
X81760000Y-77942500D01*
%TO.N,sw6*%
X85300735Y-93293015D02*
X85725000Y-92868750D01*
X85725000Y-92868750D02*
X85725000Y-86677500D01*
%TO.N,sw7*%
X92868750Y-102393750D02*
X92868750Y-90203620D01*
X92868750Y-90203620D02*
X86802630Y-84137500D01*
X86802630Y-84137500D02*
X85725000Y-84137500D01*
%TD*%
M02*
